<?xml version="1.0" encoding="UTF-8" standalone="no"?>
<!DOCTYPE svg PUBLIC "-//W3C//DTD SVG 1.1//EN" "http://www.w3.org/Graphics/SVG/1.1/DTD/svg11.dtd">
<svg version="1.1" xmlns="http://www.w3.org/2000/svg" xmlns:xlink="http://www.w3.org/1999/xlink" preserveAspectRatio="xMidYMid meet" viewBox="0 0 640 640" width="640" height="640"><defs><path d="M403.62 310.07C432.2 293.16 496.18 255.29 524.43 238.57C534.17 232.8 546.49 239.82 546.49 251.14C546.49 283.44 546.49 357.38 546.49 390.34C546.49 400.35 535.75 406.68 527 401.83C498.23 385.9 432.47 349.47 403.96 333.69C394.76 328.59 394.57 315.43 403.62 310.07Z" id="bwZPtsve7"></path><path d="M428.17 187.75C428.17 242.32 428.17 397.68 428.17 452.25C428.17 456.86 424.43 460.59 419.82 460.59C354.56 460.59 167.12 460.59 101.86 460.59C97.25 460.59 93.51 456.86 93.51 452.25C93.51 397.68 93.51 242.32 93.51 187.75C93.51 183.14 97.25 179.41 101.86 179.41C167.12 179.41 354.56 179.41 419.82 179.41C424.43 179.41 428.17 183.14 428.17 187.75Z" id="a6uYjgQYCo"></path></defs><g><g><g><use xlink:href="#bwZPtsve7" opacity="1" fill="#301f5a" fill-opacity="1"></use><g><use xlink:href="#bwZPtsve7" opacity="1" fill-opacity="0" stroke="#000000" stroke-width="1" stroke-opacity="0"></use></g></g><g><use xlink:href="#a6uYjgQYCo" opacity="1" fill="#7f4dff" fill-opacity="1"></use><g><use xlink:href="#a6uYjgQYCo" opacity="1" fill-opacity="0" stroke="#000000" stroke-width="1" stroke-opacity="0"></use></g></g></g></g></svg>