<?xml version="1.0" encoding="UTF-8" standalone="no"?>
<!DOCTYPE svg PUBLIC "-//W3C//DTD SVG 1.1//EN" "http://www.w3.org/Graphics/SVG/1.1/DTD/svg11.dtd">
<svg version="1.1" xmlns="http://www.w3.org/2000/svg" xmlns:xlink="http://www.w3.org/1999/xlink" preserveAspectRatio="xMidYMid meet" viewBox="0 0 640 640" width="640" height="640"><defs><path d="" id="avqQPrZwB"></path><path d="" id="c15JXtmesP"></path><path d="M506.34 444.55C504.43 462.32 492.86 478.59 474.57 489.25C453.82 501.34 442.18 508.12 426.9 517.04C418.96 521.66 409.13 513.58 415.44 507.62C424.48 499.1 406.52 516.04 415.44 507.62C440.71 483.79 437.47 448.65 408.1 427.88C406.24 426.57 401.59 423.29 394.15 418.03C401.82 418.03 440.17 418.03 509.2 418.03C507.55 433.36 506.59 442.2 506.34 444.55Z" id="aybY1hLc7"></path><path d="M509.2 192.1C509.2 240.11 509.2 374.15 509.2 422.16C509.2 427.68 505.57 432.16 501.09 432.16C427.03 432.16 212.97 432.16 138.91 432.16C134.43 432.16 130.8 427.68 130.8 422.16C130.8 374.15 130.8 240.11 130.8 192.1C130.8 186.58 134.43 182.1 138.91 182.1C212.97 182.1 427.03 182.1 501.09 182.1C505.57 182.1 509.2 186.58 509.2 192.1Z" id="kOxvNSLrO"></path><path d="M478.74 303.39C478.74 305.71 478.74 303.49 478.74 305.81C478.74 310.87 475.4 314.98 471.3 314.98C409.3 314.98 230.7 314.98 168.7 314.98C164.6 314.98 161.26 310.87 161.26 305.81C161.26 303.49 161.26 305.71 161.26 303.39C161.26 298.33 164.6 294.22 168.7 294.22C230.7 294.22 409.3 294.22 471.3 294.22C475.4 294.22 478.74 298.33 478.74 303.39Z" id="b1kLDvi7rt"></path><path d="M478.74 232.48C478.74 234.8 478.74 232.59 478.74 234.91C478.74 239.97 475.4 244.07 471.3 244.07C409.3 244.07 230.7 244.07 168.7 244.07C164.6 244.07 161.26 239.97 161.26 234.91C161.26 232.59 161.26 234.8 161.26 232.48C161.26 227.42 164.6 223.32 168.7 223.32C230.7 223.32 409.3 223.32 471.3 223.32C475.4 223.32 478.74 227.42 478.74 232.48Z" id="azqsoXjA2"></path><path d="M478.74 372.08C478.74 374.39 478.74 372.18 478.74 374.5C478.74 379.56 475.4 383.66 471.3 383.66C409.3 383.66 230.7 383.66 168.7 383.66C164.6 383.66 161.26 379.56 161.26 374.5C161.26 372.18 161.26 374.39 161.26 372.08C161.26 367.01 164.6 362.91 168.7 362.91C230.7 362.91 409.3 362.91 471.3 362.91C475.4 362.91 478.74 367.01 478.74 372.08Z" id="a1QrxOIGmA"></path></defs><g><g><g><g><use xlink:href="#avqQPrZwB" opacity="1" fill-opacity="0" stroke="#000000" stroke-width="1" stroke-opacity="1"></use></g></g><g><g><use xlink:href="#c15JXtmesP" opacity="1" fill-opacity="0" stroke="#000000" stroke-width="1" stroke-opacity="1"></use></g></g><g><use xlink:href="#aybY1hLc7" opacity="1" fill="#001620" fill-opacity="1"></use><g><use xlink:href="#aybY1hLc7" opacity="1" fill-opacity="0" stroke="#000000" stroke-width="1" stroke-opacity="0"></use></g></g><g><use xlink:href="#kOxvNSLrO" opacity="1" fill="#005378" fill-opacity="1"></use><g><use xlink:href="#kOxvNSLrO" opacity="1" fill-opacity="0" stroke="#000000" stroke-width="1" stroke-opacity="0"></use></g></g><g><use xlink:href="#b1kLDvi7rt" opacity="1" fill="#001620" fill-opacity="1"></use><g><use xlink:href="#b1kLDvi7rt" opacity="1" fill-opacity="0" stroke="#000000" stroke-width="1" stroke-opacity="0"></use></g></g><g><use xlink:href="#azqsoXjA2" opacity="1" fill="#001620" fill-opacity="1"></use><g><use xlink:href="#azqsoXjA2" opacity="1" fill-opacity="0" stroke="#000000" stroke-width="1" stroke-opacity="0"></use></g></g><g><use xlink:href="#a1QrxOIGmA" opacity="1" fill="#001620" fill-opacity="1"></use><g><use xlink:href="#a1QrxOIGmA" opacity="1" fill-opacity="0" stroke="#000000" stroke-width="1" stroke-opacity="0"></use></g></g></g></g></svg>