<?xml version="1.0" encoding="UTF-8" standalone="no"?>
<!DOCTYPE svg PUBLIC "-//W3C//DTD SVG 1.1//EN" "http://www.w3.org/Graphics/SVG/1.1/DTD/svg11.dtd">
<svg version="1.1" xmlns="http://www.w3.org/2000/svg" xmlns:xlink="http://www.w3.org/1999/xlink" preserveAspectRatio="xMidYMid meet" viewBox="0 0 640 640" width="640" height="640"><defs><path d="" id="b1kiVlOpjb"></path><path d="" id="a89BOHVmcH"></path><path d="M553.26 430.9C551.67 449.79 550.67 461.6 550.28 466.32C548.28 490.04 536.22 511.77 517.14 526C495.5 542.15 483.36 551.21 467.42 563.11C459.14 569.29 448.88 558.5 455.47 550.54C464.89 539.16 446.16 561.78 455.47 550.54C481.82 518.71 478.44 471.79 447.81 444.06C445.87 442.31 441.02 437.92 433.26 430.9L553.26 430.9Z" id="a2H3952bx4"></path><path d="M543.26 194.97C548.78 194.97 553.26 199.45 553.26 204.97C553.26 252.98 553.26 387.02 553.26 435.03C553.26 440.55 548.78 445.03 543.26 445.03C451.95 445.03 188.05 445.03 96.74 445.03C91.22 445.03 86.74 440.55 86.74 435.03C86.74 387.02 86.74 252.98 86.74 204.97C86.74 199.45 91.22 194.97 96.74 194.97C188.05 194.97 451.95 194.97 543.26 194.97Z" id="f27Tfxb4Ng"></path><path d="M506.53 307.09C511.59 307.09 515.7 311.2 515.7 316.26C515.7 318.58 515.7 316.36 515.7 318.68C515.7 323.74 511.59 327.85 506.53 327.85C430.09 327.85 209.91 327.85 133.47 327.85C128.41 327.85 124.3 323.74 124.3 318.68C124.3 316.36 124.3 318.58 124.3 316.26C124.3 311.2 128.41 307.09 133.47 307.09C209.91 307.09 430.09 307.09 506.53 307.09Z" id="c4noUDnXQk"></path><path d="M506.53 236.19C511.59 236.19 515.7 240.29 515.7 245.35C515.7 247.67 515.7 245.46 515.7 247.78C515.7 252.84 511.59 256.94 506.53 256.94C430.09 256.94 209.91 256.94 133.47 256.94C128.41 256.94 124.3 252.84 124.3 247.78C124.3 245.46 124.3 247.67 124.3 245.35C124.3 240.29 128.41 236.19 133.47 236.19C209.91 236.19 430.09 236.19 506.53 236.19Z" id="ch6WnxQpK"></path><path d="M506.53 375.78C511.59 375.78 515.7 379.88 515.7 384.95C515.7 387.26 515.7 385.05 515.7 387.37C515.7 392.43 511.59 396.53 506.53 396.53C430.09 396.53 209.91 396.53 133.47 396.53C128.41 396.53 124.3 392.43 124.3 387.37C124.3 385.05 124.3 387.26 124.3 384.95C124.3 379.88 128.41 375.78 133.47 375.78C209.91 375.78 430.09 375.78 506.53 375.78Z" id="h11kJprQsz"></path></defs><g><g><g><g><use xlink:href="#b1kiVlOpjb" opacity="1" fill-opacity="0" stroke="#000000" stroke-width="1" stroke-opacity="1"></use></g></g><g><g><use xlink:href="#a89BOHVmcH" opacity="1" fill-opacity="0" stroke="#000000" stroke-width="1" stroke-opacity="1"></use></g></g><g><use xlink:href="#a2H3952bx4" opacity="1" fill="#001620" fill-opacity="1"></use></g><g><use xlink:href="#f27Tfxb4Ng" opacity="1" fill="#005378" fill-opacity="1"></use></g><g><use xlink:href="#c4noUDnXQk" opacity="1" fill="#001620" fill-opacity="1"></use></g><g><use xlink:href="#ch6WnxQpK" opacity="1" fill="#001620" fill-opacity="1"></use></g><g><use xlink:href="#h11kJprQsz" opacity="1" fill="#001620" fill-opacity="1"></use></g></g></g></svg>