<?xml version="1.0" encoding="UTF-8" standalone="no"?>
<!DOCTYPE svg PUBLIC "-//W3C//DTD SVG 1.1//EN" "http://www.w3.org/Graphics/SVG/1.1/DTD/svg11.dtd">
<svg version="1.1" xmlns="http://www.w3.org/2000/svg" xmlns:xlink="http://www.w3.org/1999/xlink" preserveAspectRatio="xMidYMid meet" viewBox="0 0 640 640" width="640" height="640"><defs><path d="M544.67 582C514.51 599.58 497.59 609.43 475.38 622.4C463.84 629.11 449.55 617.37 458.72 608.71C471.86 596.32 445.76 620.94 458.72 608.71C495.45 574.07 490.74 522.99 448.05 492.8C445.35 490.9 438.59 486.13 427.78 478.49C438.92 478.49 494.67 478.49 595 478.49C592.6 500.77 591.21 513.62 590.84 517.03C588.07 542.86 571.25 566.51 544.67 582Z" id="aTrmUkSYm"></path><path d="M544.67 582C514.51 599.58 497.59 609.43 475.38 622.4C463.84 629.11 449.55 617.37 458.72 608.71C471.86 596.32 445.76 620.94 458.72 608.71C495.45 574.07 490.74 522.99 448.05 492.8C445.35 490.9 438.59 486.13 427.78 478.49C438.92 478.49 494.67 478.49 595 478.49C592.6 500.77 591.21 513.62 590.84 517.03C588.07 542.86 571.25 566.51 544.67 582Z" id="cmfJSFecN"></path><path d="M595 484.49C595 492.51 589.72 499.02 583.21 499.02C475.57 499.02 164.43 499.02 56.79 499.02C50.28 499.02 45 492.51 45 484.49C45 414.71 45 219.88 45 150.1C45 142.08 50.28 135.57 56.79 135.57C164.43 135.57 475.57 135.57 583.21 135.57C589.72 135.57 595 142.08 595 150.1C595 219.88 595 414.71 595 484.49Z" id="byMKuUNkw"></path><path d="M595 484.49C595 492.51 589.72 499.02 583.21 499.02C475.57 499.02 164.43 499.02 56.79 499.02C50.28 499.02 45 492.51 45 484.49C45 414.71 45 219.88 45 150.1C45 142.08 50.28 135.57 56.79 135.57C164.43 135.57 475.57 135.57 583.21 135.57C589.72 135.57 595 142.08 595 150.1C595 219.88 595 414.71 595 484.49Z" id="a2ohlEj4tb"></path><path d="M550.73 315.38C550.73 322.73 545.87 328.71 539.91 328.71C449.8 328.71 190.2 328.71 100.09 328.71C94.13 328.71 89.27 322.73 89.27 315.38C89.27 312 89.27 315.23 89.27 311.86C89.27 304.5 94.13 298.53 100.09 298.53C190.2 298.53 449.8 298.53 539.91 298.53C545.87 298.53 550.73 304.5 550.73 311.86C550.73 315.23 550.73 312 550.73 315.38Z" id="gj2Lyw1Xo"></path><path d="M550.73 315.38C550.73 322.73 545.87 328.71 539.91 328.71C449.8 328.71 190.2 328.71 100.09 328.71C94.13 328.71 89.27 322.73 89.27 315.38C89.27 312 89.27 315.23 89.27 311.86C89.27 304.5 94.13 298.53 100.09 298.53C190.2 298.53 449.8 298.53 539.91 298.53C545.87 298.53 550.73 304.5 550.73 311.86C550.73 315.23 550.73 312 550.73 315.38Z" id="k1sCOwXSTM"></path><path d="M550.73 212.32C550.73 219.68 545.87 225.64 539.91 225.64C449.8 225.64 190.2 225.64 100.09 225.64C94.13 225.64 89.27 219.68 89.27 212.32C89.27 208.95 89.27 212.16 89.27 208.79C89.27 201.44 94.13 195.48 100.09 195.48C190.2 195.48 449.8 195.48 539.91 195.48C545.87 195.48 550.73 201.44 550.73 208.79C550.73 212.16 550.73 208.95 550.73 212.32Z" id="b20PgQjM1E"></path><path d="M550.73 212.32C550.73 219.68 545.87 225.64 539.91 225.64C449.8 225.64 190.2 225.64 100.09 225.64C94.13 225.64 89.27 219.68 89.27 212.32C89.27 208.95 89.27 212.16 89.27 208.79C89.27 201.44 94.13 195.48 100.09 195.48C190.2 195.48 449.8 195.48 539.91 195.48C545.87 195.48 550.73 201.44 550.73 208.79C550.73 212.16 550.73 208.95 550.73 212.32Z" id="b2258uasY9"></path><path d="M550.73 415.22C550.73 422.57 545.87 428.53 539.91 428.53C449.8 428.53 190.2 428.53 100.09 428.53C94.13 428.53 89.27 422.57 89.27 415.22C89.27 411.84 89.27 415.06 89.27 411.7C89.27 404.33 94.13 398.37 100.09 398.37C190.2 398.37 449.8 398.37 539.91 398.37C545.87 398.37 550.73 404.33 550.73 411.7C550.73 415.06 550.73 411.84 550.73 415.22Z" id="aqLUynu9I"></path><path d="M550.73 415.22C550.73 422.57 545.87 428.53 539.91 428.53C449.8 428.53 190.2 428.53 100.09 428.53C94.13 428.53 89.27 422.57 89.27 415.22C89.27 411.84 89.27 415.06 89.27 411.7C89.27 404.33 94.13 398.37 100.09 398.37C190.2 398.37 449.8 398.37 539.91 398.37C545.87 398.37 550.73 404.33 550.73 411.7C550.73 415.06 550.73 411.84 550.73 415.22Z" id="hgdJjQhNS"></path></defs><g><g><g><use xlink:href="#aTrmUkSYm" opacity="1" fill="#001620" fill-opacity="1"></use><g><use xlink:href="#aTrmUkSYm" opacity="1" fill-opacity="0" stroke="#000000" stroke-width="1" stroke-opacity="0"></use></g></g><g><use xlink:href="#cmfJSFecN" opacity="1" fill="#000000" fill-opacity="0"></use><g><use xlink:href="#cmfJSFecN" opacity="1" fill-opacity="0" stroke="#000000" stroke-width="1" stroke-opacity="0"></use></g></g><g><use xlink:href="#byMKuUNkw" opacity="1" fill="#005378" fill-opacity="1"></use><g><use xlink:href="#byMKuUNkw" opacity="1" fill-opacity="0" stroke="#000000" stroke-width="1" stroke-opacity="0"></use></g></g><g><use xlink:href="#a2ohlEj4tb" opacity="1" fill="#000000" fill-opacity="0"></use><g><use xlink:href="#a2ohlEj4tb" opacity="1" fill-opacity="0" stroke="#000000" stroke-width="1" stroke-opacity="0"></use></g></g><g><use xlink:href="#gj2Lyw1Xo" opacity="1" fill="#001620" fill-opacity="1"></use><g><use xlink:href="#gj2Lyw1Xo" opacity="1" fill-opacity="0" stroke="#000000" stroke-width="1" stroke-opacity="0"></use></g></g><g><use xlink:href="#k1sCOwXSTM" opacity="1" fill="#000000" fill-opacity="0"></use><g><use xlink:href="#k1sCOwXSTM" opacity="1" fill-opacity="0" stroke="#000000" stroke-width="1" stroke-opacity="0"></use></g></g><g><use xlink:href="#b20PgQjM1E" opacity="1" fill="#001620" fill-opacity="1"></use><g><use xlink:href="#b20PgQjM1E" opacity="1" fill-opacity="0" stroke="#000000" stroke-width="1" stroke-opacity="0"></use></g></g><g><use xlink:href="#b2258uasY9" opacity="1" fill="#000000" fill-opacity="0"></use><g><use xlink:href="#b2258uasY9" opacity="1" fill-opacity="0" stroke="#000000" stroke-width="1" stroke-opacity="0"></use></g></g><g><use xlink:href="#aqLUynu9I" opacity="1" fill="#001620" fill-opacity="1"></use><g><use xlink:href="#aqLUynu9I" opacity="1" fill-opacity="0" stroke="#000000" stroke-width="1" stroke-opacity="0"></use></g></g><g><use xlink:href="#hgdJjQhNS" opacity="1" fill="#000000" fill-opacity="0"></use><g><use xlink:href="#hgdJjQhNS" opacity="1" fill-opacity="0" stroke="#000000" stroke-width="1" stroke-opacity="0"></use></g></g></g></g></svg>