<?xml version="1.0" encoding="UTF-8" standalone="no"?>
<!DOCTYPE svg PUBLIC "-//W3C//DTD SVG 1.1//EN" "http://www.w3.org/Graphics/SVG/1.1/DTD/svg11.dtd">
<svg version="1.1" xmlns="http://www.w3.org/2000/svg" xmlns:xlink="http://www.w3.org/1999/xlink" preserveAspectRatio="xMidYMid meet" viewBox="0 0 640 640" width="640" height="640"><defs><path d="M175.79 347.89L175.79 292.11L277.71 292.11L277.71 347.89L175.79 347.89Z" id="f43IHNP3bp"></path><path d="M175.79 347.89L175.79 292.11L277.71 292.11L277.71 347.89L175.79 347.89Z" id="a5xZAhL0nB"></path><path d="M341.13 347.89L341.13 292.11L464.21 292.11L464.21 347.89L341.13 347.89Z" id="a5ZIWlyq7M"></path><path d="M341.13 347.89L341.13 292.11L464.21 292.11L464.21 347.89L341.13 347.89Z" id="b2TXOPGO5I"></path><path d="M346.97 347.89L291.19 347.89L291.19 175.74L346.97 175.74L346.97 347.89Z" id="evbZIvZPV"></path><path d="M346.97 347.89L291.19 347.89L291.19 175.74L346.97 175.74L346.97 347.89Z" id="agGwlRckx"></path><path d="M346.97 464.26L291.19 464.26L291.19 324.68L346.97 324.68L346.97 464.26Z" id="fr6t2XRVo"></path><path d="M346.97 464.26L291.19 464.26L291.19 324.68L346.97 324.68L346.97 464.26Z" id="i3M0j3c7A"></path></defs><g><g><g><use xlink:href="#f43IHNP3bp" opacity="1" fill="#ec2700" fill-opacity="1"></use><g><use xlink:href="#f43IHNP3bp" opacity="1" fill-opacity="0" stroke="#000000" stroke-width="1" stroke-opacity="0"></use></g></g><g><use xlink:href="#a5xZAhL0nB" opacity="1" fill="#000000" fill-opacity="0"></use><g><use xlink:href="#a5xZAhL0nB" opacity="1" fill-opacity="0" stroke="#000000" stroke-width="1" stroke-opacity="0"></use></g></g><g><use xlink:href="#a5ZIWlyq7M" opacity="1" fill="#ec2700" fill-opacity="1"></use><g><use xlink:href="#a5ZIWlyq7M" opacity="1" fill-opacity="0" stroke="#000000" stroke-width="1" stroke-opacity="0"></use></g></g><g><use xlink:href="#b2TXOPGO5I" opacity="1" fill="#000000" fill-opacity="0"></use><g><use xlink:href="#b2TXOPGO5I" opacity="1" fill-opacity="0" stroke="#000000" stroke-width="1" stroke-opacity="0"></use></g></g><g><use xlink:href="#evbZIvZPV" opacity="1" fill="#ec2700" fill-opacity="1"></use><g><use xlink:href="#evbZIvZPV" opacity="1" fill-opacity="0" stroke="#000000" stroke-width="1" stroke-opacity="0"></use></g></g><g><use xlink:href="#agGwlRckx" opacity="1" fill="#000000" fill-opacity="0"></use><g><use xlink:href="#agGwlRckx" opacity="1" fill-opacity="0" stroke="#000000" stroke-width="1" stroke-opacity="0"></use></g></g><g><use xlink:href="#fr6t2XRVo" opacity="1" fill="#ec2700" fill-opacity="1"></use><g><use xlink:href="#fr6t2XRVo" opacity="1" fill-opacity="0" stroke="#000000" stroke-width="1" stroke-opacity="0"></use></g></g><g><use xlink:href="#i3M0j3c7A" opacity="1" fill="#000000" fill-opacity="0"></use><g><use xlink:href="#i3M0j3c7A" opacity="1" fill-opacity="0" stroke="#000000" stroke-width="1" stroke-opacity="0"></use></g></g></g></g></svg>