<?xml version="1.0" encoding="UTF-8" standalone="no"?>
<!DOCTYPE svg PUBLIC "-//W3C//DTD SVG 1.1//EN" "http://www.w3.org/Graphics/SVG/1.1/DTD/svg11.dtd">
<svg version="1.1" xmlns="http://www.w3.org/2000/svg" xmlns:xlink="http://www.w3.org/1999/xlink" preserveAspectRatio="xMidYMid meet" viewBox="0 0 640 640" width="640" height="640"><defs><path d="M20 261.98L232.02 261.98L232.02 378.02L20 378.02L20 261.98Z" id="f3s9BQPw6z"></path><path d="M20 261.98L232.02 261.98L232.02 378.02L20 378.02L20 261.98Z" id="b8ttNTBrS"></path><path d="M20 261.98L232.02 261.98L232.02 378.02L20 378.02L20 261.98Z" id="e5QBcoTX3B"></path><path d="M20 261.98L232.02 261.98L232.02 378.02L20 378.02L20 261.98Z" id="b5KpmJqISD"></path><path d="M363.96 261.98L620 261.98L620 378.02L363.96 378.02L363.96 261.98Z" id="f1gGeE7NAS"></path><path d="M363.96 261.98L620 261.98L620 378.02L363.96 378.02L363.96 261.98Z" id="i2HOJxZ1jg"></path><path d="M363.96 261.98L620 261.98L620 378.02L363.96 378.02L363.96 261.98Z" id="d2mdgdpJq"></path><path d="M363.96 261.98L620 261.98L620 378.02L363.96 378.02L363.96 261.98Z" id="c3qC0PMjvQ"></path><path d="M260.07 378.02L260.07 19.89L376.11 19.89L376.11 378.02L260.07 378.02Z" id="dOOffB6Fq"></path><path d="M260.07 378.02L260.07 19.89L376.11 19.89L376.11 378.02L260.07 378.02Z" id="a3bkdAN4FT"></path><path d="M260.07 378.02L260.07 19.89L376.11 19.89L376.11 378.02L260.07 378.02Z" id="b7S077QPE"></path><path d="M260.07 378.02L260.07 19.89L376.11 19.89L376.11 378.02L260.07 378.02Z" id="b3gYV0mid2"></path><path d="M260.07 620.11L260.07 329.74L376.11 329.74L376.11 620.11L260.07 620.11Z" id="a1ysJVAIWa"></path><path d="M260.07 620.11L260.07 329.74L376.11 329.74L376.11 620.11L260.07 620.11Z" id="edKFMBEwN"></path><path d="M260.07 620.11L260.07 329.74L376.11 329.74L376.11 620.11L260.07 620.11Z" id="a3QWATdk45"></path><path d="M260.07 620.11L260.07 329.74L376.11 329.74L376.11 620.11L260.07 620.11Z" id="aQuSOdGbx"></path></defs><g><g><g><use xlink:href="#f3s9BQPw6z" opacity="1" fill="#ec2700" fill-opacity="1"></use><g><use xlink:href="#f3s9BQPw6z" opacity="1" fill-opacity="0" stroke="#000000" stroke-width="1" stroke-opacity="0"></use></g></g><g><use xlink:href="#b8ttNTBrS" opacity="1" fill="#000000" fill-opacity="0"></use><g><use xlink:href="#b8ttNTBrS" opacity="1" fill-opacity="0" stroke="#000000" stroke-width="1" stroke-opacity="0"></use></g></g><g><use xlink:href="#e5QBcoTX3B" opacity="1" fill="#000000" fill-opacity="0"></use><g><use xlink:href="#e5QBcoTX3B" opacity="1" fill-opacity="0" stroke="#000000" stroke-width="1" stroke-opacity="0"></use></g></g><g><use xlink:href="#b5KpmJqISD" opacity="1" fill="#000000" fill-opacity="0"></use><g><use xlink:href="#b5KpmJqISD" opacity="1" fill-opacity="0" stroke="#000000" stroke-width="1" stroke-opacity="0"></use></g></g><g><use xlink:href="#f1gGeE7NAS" opacity="1" fill="#ec2700" fill-opacity="1"></use><g><use xlink:href="#f1gGeE7NAS" opacity="1" fill-opacity="0" stroke="#000000" stroke-width="1" stroke-opacity="0"></use></g></g><g><use xlink:href="#i2HOJxZ1jg" opacity="1" fill="#000000" fill-opacity="0"></use><g><use xlink:href="#i2HOJxZ1jg" opacity="1" fill-opacity="0" stroke="#000000" stroke-width="1" stroke-opacity="0"></use></g></g><g><use xlink:href="#d2mdgdpJq" opacity="1" fill="#000000" fill-opacity="0"></use><g><use xlink:href="#d2mdgdpJq" opacity="1" fill-opacity="0" stroke="#000000" stroke-width="1" stroke-opacity="0"></use></g></g><g><use xlink:href="#c3qC0PMjvQ" opacity="1" fill="#000000" fill-opacity="0"></use><g><use xlink:href="#c3qC0PMjvQ" opacity="1" fill-opacity="0" stroke="#000000" stroke-width="1" stroke-opacity="0"></use></g></g><g><use xlink:href="#dOOffB6Fq" opacity="1" fill="#ec2700" fill-opacity="1"></use><g><use xlink:href="#dOOffB6Fq" opacity="1" fill-opacity="0" stroke="#000000" stroke-width="1" stroke-opacity="0"></use></g></g><g><use xlink:href="#a3bkdAN4FT" opacity="1" fill="#000000" fill-opacity="0"></use><g><use xlink:href="#a3bkdAN4FT" opacity="1" fill-opacity="0" stroke="#000000" stroke-width="1" stroke-opacity="0"></use></g></g><g><use xlink:href="#b7S077QPE" opacity="1" fill="#000000" fill-opacity="0"></use><g><use xlink:href="#b7S077QPE" opacity="1" fill-opacity="0" stroke="#000000" stroke-width="1" stroke-opacity="0"></use></g></g><g><use xlink:href="#b3gYV0mid2" opacity="1" fill="#000000" fill-opacity="0"></use><g><use xlink:href="#b3gYV0mid2" opacity="1" fill-opacity="0" stroke="#000000" stroke-width="1" stroke-opacity="0"></use></g></g><g><use xlink:href="#a1ysJVAIWa" opacity="1" fill="#ec2700" fill-opacity="1"></use><g><use xlink:href="#a1ysJVAIWa" opacity="1" fill-opacity="0" stroke="#000000" stroke-width="1" stroke-opacity="0"></use></g></g><g><use xlink:href="#edKFMBEwN" opacity="1" fill="#000000" fill-opacity="0"></use><g><use xlink:href="#edKFMBEwN" opacity="1" fill-opacity="0" stroke="#000000" stroke-width="1" stroke-opacity="0"></use></g></g><g><use xlink:href="#a3QWATdk45" opacity="1" fill="#000000" fill-opacity="0"></use><g><use xlink:href="#a3QWATdk45" opacity="1" fill-opacity="0" stroke="#000000" stroke-width="1" stroke-opacity="0"></use></g></g><g><use xlink:href="#aQuSOdGbx" opacity="1" fill="#000000" fill-opacity="0"></use><g><use xlink:href="#aQuSOdGbx" opacity="1" fill-opacity="0" stroke="#000000" stroke-width="1" stroke-opacity="0"></use></g></g></g></g></svg>