<?xml version="1.0" encoding="UTF-8" standalone="no"?>
<!DOCTYPE svg PUBLIC "-//W3C//DTD SVG 1.1//EN" "http://www.w3.org/Graphics/SVG/1.1/DTD/svg11.dtd">
<svg version="1.1" xmlns="http://www.w3.org/2000/svg" xmlns:xlink="http://www.w3.org/1999/xlink" preserveAspectRatio="xMidYMid meet" viewBox="0 0 640 640" width="640" height="640"><defs><path d="M620 536.4L536.31 536.4L536.31 103.6L620 103.6L620 536.4Z" id="a7u6NAeYy"></path><path d="M620 536.4L536.31 536.4L536.31 103.6L620 103.6L620 536.4Z" id="h1dhlr7Vxj"></path><path d="M103.69 536.38L20 536.38L20 103.6L103.69 103.6L103.69 536.38Z" id="acoA2Co"></path><path d="M103.69 536.38L20 536.38L20 103.6L103.69 103.6L103.69 536.38Z" id="b3qGNkMH6o"></path><path d="M24.31 191.17L24.31 103.6L276.78 103.6L276.78 191.17L24.31 191.17Z" id="aJ5JFkoS"></path><path d="M24.31 191.17L24.31 103.6L276.78 103.6L276.78 191.17L24.31 191.17Z" id="aMXig4guQ"></path><path d="M103.69 361.83L103.69 278.16L256.56 278.16L256.56 361.83L103.69 361.83Z" id="bagujazkH"></path><path d="M103.69 361.83L103.69 278.16L256.56 278.16L256.56 361.83L103.69 361.83Z" id="a1qD7jow34"></path><path d="M351.7 361.83L351.7 278.16L536.31 278.16L536.31 361.83L351.7 361.83Z" id="dDwNWmTVl"></path><path d="M351.7 361.83L351.7 278.16L536.31 278.16L536.31 361.83L351.7 361.83Z" id="d1hpLL0EBX"></path><path d="M360.46 361.83L276.78 361.83L276.78 103.6L360.46 103.6L360.46 361.83Z" id="e5qPIbM6Hn"></path><path d="M360.46 361.83L276.78 361.83L276.78 103.6L360.46 103.6L360.46 361.83Z" id="k3aUMgcTc6"></path><path d="M360.46 536.38L276.78 536.38L276.78 327.01L360.46 327.01L360.46 536.38Z" id="k1zfz4ryQ4"></path><path d="M360.46 536.38L276.78 536.38L276.78 327.01L360.46 327.01L360.46 536.38Z" id="d2YWmyjWZj"></path></defs><g><g><g><use xlink:href="#a7u6NAeYy" opacity="1" fill="#651000" fill-opacity="1"></use><g><use xlink:href="#a7u6NAeYy" opacity="1" fill-opacity="0" stroke="#000000" stroke-width="1" stroke-opacity="0"></use></g></g><g><use xlink:href="#h1dhlr7Vxj" opacity="1" fill="#000000" fill-opacity="0"></use><g><use xlink:href="#h1dhlr7Vxj" opacity="1" fill-opacity="0" stroke="#000000" stroke-width="1" stroke-opacity="0"></use></g></g><g><use xlink:href="#acoA2Co" opacity="1" fill="#651000" fill-opacity="1"></use><g><use xlink:href="#acoA2Co" opacity="1" fill-opacity="0" stroke="#000000" stroke-width="1" stroke-opacity="0"></use></g></g><g><use xlink:href="#b3qGNkMH6o" opacity="1" fill="#000000" fill-opacity="0"></use><g><use xlink:href="#b3qGNkMH6o" opacity="1" fill-opacity="0" stroke="#000000" stroke-width="1" stroke-opacity="0"></use></g></g><g><use xlink:href="#aJ5JFkoS" opacity="1" fill="#651000" fill-opacity="1"></use><g><use xlink:href="#aJ5JFkoS" opacity="1" fill-opacity="0" stroke="#000000" stroke-width="1" stroke-opacity="0"></use></g></g><g><use xlink:href="#aMXig4guQ" opacity="1" fill="#000000" fill-opacity="0"></use><g><use xlink:href="#aMXig4guQ" opacity="1" fill-opacity="0" stroke="#000000" stroke-width="1" stroke-opacity="0"></use></g></g><g><use xlink:href="#bagujazkH" opacity="1" fill="#ec2700" fill-opacity="1"></use><g><use xlink:href="#bagujazkH" opacity="1" fill-opacity="0" stroke="#000000" stroke-width="1" stroke-opacity="0"></use></g></g><g><use xlink:href="#a1qD7jow34" opacity="1" fill="#000000" fill-opacity="0"></use><g><use xlink:href="#a1qD7jow34" opacity="1" fill-opacity="0" stroke="#000000" stroke-width="1" stroke-opacity="0"></use></g></g><g><use xlink:href="#dDwNWmTVl" opacity="1" fill="#ec2700" fill-opacity="1"></use><g><use xlink:href="#dDwNWmTVl" opacity="1" fill-opacity="0" stroke="#000000" stroke-width="1" stroke-opacity="0"></use></g></g><g><use xlink:href="#d1hpLL0EBX" opacity="1" fill="#000000" fill-opacity="0"></use><g><use xlink:href="#d1hpLL0EBX" opacity="1" fill-opacity="0" stroke="#000000" stroke-width="1" stroke-opacity="0"></use></g></g><g><use xlink:href="#e5qPIbM6Hn" opacity="1" fill="#ec2700" fill-opacity="1"></use><g><use xlink:href="#e5qPIbM6Hn" opacity="1" fill-opacity="0" stroke="#000000" stroke-width="1" stroke-opacity="0"></use></g></g><g><use xlink:href="#k3aUMgcTc6" opacity="1" fill="#000000" fill-opacity="0"></use><g><use xlink:href="#k3aUMgcTc6" opacity="1" fill-opacity="0" stroke="#000000" stroke-width="1" stroke-opacity="0"></use></g></g><g><use xlink:href="#k1zfz4ryQ4" opacity="1" fill="#ec2700" fill-opacity="1"></use><g><use xlink:href="#k1zfz4ryQ4" opacity="1" fill-opacity="0" stroke="#000000" stroke-width="1" stroke-opacity="0"></use></g></g><g><use xlink:href="#d2YWmyjWZj" opacity="1" fill="#000000" fill-opacity="0"></use><g><use xlink:href="#d2YWmyjWZj" opacity="1" fill-opacity="0" stroke="#000000" stroke-width="1" stroke-opacity="0"></use></g></g></g></g></svg>