<?xml version="1.0" encoding="UTF-8" standalone="no"?>
<!DOCTYPE svg PUBLIC "-//W3C//DTD SVG 1.1//EN" "http://www.w3.org/Graphics/SVG/1.1/DTD/svg11.dtd">
<svg version="1.1" xmlns="http://www.w3.org/2000/svg" xmlns:xlink="http://www.w3.org/1999/xlink" preserveAspectRatio="xMidYMid meet" viewBox="0 0 640 640" width="640" height="640"><defs><path d="M520 175.74L520 464.27L464.21 464.27L464.21 175.74L520 175.74Z" id="gIRLcfsAg"></path><path d="M175.79 175.74L175.79 464.26L120 464.26L120 175.74L175.79 175.74Z" id="bO7r4k9O3"></path><path d="M291.19 234.12L122.87 234.12L122.87 175.74L291.19 175.74L291.19 234.12Z" id="f1eLMBplLj"></path><path d="M277.71 347.89L175.79 347.89L175.79 292.11L277.71 292.11L277.71 347.89Z" id="a6sWi1dq2"></path><path d="M464.21 347.89L341.13 347.89L341.13 292.11L464.21 292.11L464.21 347.89Z" id="b4vcBCsrnw"></path><path d="M346.97 175.74L346.97 347.89L291.19 347.89L291.19 175.74L346.97 175.74Z" id="f47a7KGUQQ"></path><path d="M346.97 324.68L346.97 464.26L291.19 464.26L291.19 324.68L346.97 324.68Z" id="a4vpWCzvHS"></path></defs><g><g><g><use xlink:href="#gIRLcfsAg" opacity="1" fill="#651000" fill-opacity="1"></use><g><use xlink:href="#gIRLcfsAg" opacity="1" fill-opacity="0" stroke="#000000" stroke-width="1" stroke-opacity="0"></use></g></g><g><use xlink:href="#bO7r4k9O3" opacity="1" fill="#651000" fill-opacity="1"></use><g><use xlink:href="#bO7r4k9O3" opacity="1" fill-opacity="0" stroke="#000000" stroke-width="1" stroke-opacity="0"></use></g></g><g><use xlink:href="#f1eLMBplLj" opacity="1" fill="#651000" fill-opacity="1"></use><g><use xlink:href="#f1eLMBplLj" opacity="1" fill-opacity="0" stroke="#000000" stroke-width="1" stroke-opacity="0"></use></g></g><g><use xlink:href="#a6sWi1dq2" opacity="1" fill="#ec2700" fill-opacity="1"></use><g><use xlink:href="#a6sWi1dq2" opacity="1" fill-opacity="0" stroke="#000000" stroke-width="1" stroke-opacity="0"></use></g></g><g><use xlink:href="#b4vcBCsrnw" opacity="1" fill="#ec2700" fill-opacity="1"></use><g><use xlink:href="#b4vcBCsrnw" opacity="1" fill-opacity="0" stroke="#000000" stroke-width="1" stroke-opacity="0"></use></g></g><g><use xlink:href="#f47a7KGUQQ" opacity="1" fill="#ec2700" fill-opacity="1"></use><g><use xlink:href="#f47a7KGUQQ" opacity="1" fill-opacity="0" stroke="#000000" stroke-width="1" stroke-opacity="0"></use></g></g><g><use xlink:href="#a4vpWCzvHS" opacity="1" fill="#ec2700" fill-opacity="1"></use><g><use xlink:href="#a4vpWCzvHS" opacity="1" fill-opacity="0" stroke="#000000" stroke-width="1" stroke-opacity="0"></use></g></g></g></g></svg>