<?xml version="1.0" encoding="UTF-8" standalone="no"?>
<!DOCTYPE svg PUBLIC "-//W3C//DTD SVG 1.1//EN" "http://www.w3.org/Graphics/SVG/1.1/DTD/svg11.dtd">
<svg version="1.1" xmlns="http://www.w3.org/2000/svg" xmlns:xlink="http://www.w3.org/1999/xlink" preserveAspectRatio="xMidYMid meet" viewBox="0 0 640 640" width="640" height="640"><defs><path d="M299.69 481.12L338.31 481.12L338.31 583.24L299.69 583.24L299.69 481.12Z" id="c6BL3t0pT"></path><path d="" id="d2fHJ2riUY"></path><path d="M382.77 77.5C388.3 77.5 392.77 81.98 392.77 87.5C392.77 147.28 392.77 316.63 392.77 376.41C392.77 381.93 388.3 386.41 382.77 386.41C355.66 386.41 284.34 386.41 257.23 386.41C251.7 386.41 247.23 381.93 247.23 376.41C247.23 316.63 247.23 147.28 247.23 87.5C247.23 81.98 251.7 77.5 257.23 77.5C284.34 77.5 355.66 77.5 382.77 77.5Z" id="ahJ3V78zO"></path><path d="M452.98 309.06C452.98 340.09 452.98 359.48 452.98 367.24C452.98 415.07 424.34 458.26 380.28 476.87C368.32 481.92 394.82 470.73 380.28 476.87C342.03 493.03 298.89 493.2 260.51 477.35C245.41 471.11 272.51 482.3 260.51 477.35C214.82 458.47 185.02 413.92 185.02 364.48C185.02 357.09 185.02 338.62 185.02 309.06" id="d2httoxF1m"></path><clipPath id="clipaeJ0KH4ai"><use xlink:href="#d2httoxF1m" opacity="1"></use></clipPath><path d="M377 560.47C382.04 560.47 386.14 564.56 386.14 569.6C386.14 575.38 386.14 583.55 386.14 589.33C386.14 594.37 382.04 598.47 377 598.47C351.97 598.47 286.03 598.47 261 598.47C255.96 598.47 251.87 594.37 251.87 589.33C251.87 583.55 251.87 575.38 251.87 569.6C251.87 564.56 255.96 560.47 261 560.47C286.03 560.47 351.97 560.47 377 560.47Z" id="bQigNpZAh"></path></defs><g><g><g><use xlink:href="#c6BL3t0pT" opacity="1" fill="#7f4dff" fill-opacity="1"></use></g><g><g><use xlink:href="#d2fHJ2riUY" opacity="1" fill-opacity="0" stroke="#000000" stroke-width="1" stroke-opacity="1"></use></g></g><g><use xlink:href="#ahJ3V78zO" opacity="1" fill="#7f4dff" fill-opacity="1"></use></g><g><g clip-path="url(#clipaeJ0KH4ai)"><use xlink:href="#d2httoxF1m" opacity="1" fill-opacity="0" stroke="#301f5a" stroke-width="100" stroke-opacity="1"></use></g></g><g><use xlink:href="#bQigNpZAh" opacity="1" fill="#7f4dff" fill-opacity="1"></use></g></g></g></svg>