<?xml version="1.0" encoding="UTF-8" standalone="no"?>
<!DOCTYPE svg PUBLIC "-//W3C//DTD SVG 1.1//EN" "http://www.w3.org/Graphics/SVG/1.1/DTD/svg11.dtd">
<svg version="1.1" xmlns="http://www.w3.org/2000/svg" xmlns:xlink="http://www.w3.org/1999/xlink" preserveAspectRatio="xMidYMid meet" viewBox="0 0 640 640" width="640" height="640"><defs><path d="M540.09 544.89C538.98 460.36 493.21 382.73 419.78 340.84C399.83 329.46 443.48 354.36 419.78 340.84C357.94 305.56 282.08 305.48 220.17 340.64C199.27 352.51 240.14 329.3 220.17 340.64C154.55 377.9 110.84 444.41 102.68 519.42C102.31 522.82 101.39 531.31 99.91 544.89C129.26 544.89 275.98 544.89 540.09 544.89C540.09 544.89 540.09 544.89 540.09 544.89Z" id="c6rix0LCbo"></path><path d="M202.78 212.32C202.78 147.63 255.31 95.11 320 95.11C384.69 95.11 437.22 147.63 437.22 212.32C437.22 277.02 384.69 329.54 320 329.54C255.31 329.54 202.78 277.02 202.78 212.32Z" id="g7f8kLOH1"></path></defs><g><g><g><use xlink:href="#c6rix0LCbo" opacity="1" fill="#5b2181" fill-opacity="1"></use><g><use xlink:href="#c6rix0LCbo" opacity="1" fill-opacity="0" stroke="#000000" stroke-width="1" stroke-opacity="0"></use></g></g><g><use xlink:href="#g7f8kLOH1" opacity="1" fill="#260d36" fill-opacity="1"></use><g><use xlink:href="#g7f8kLOH1" opacity="1" fill-opacity="0" stroke="#000000" stroke-width="1" stroke-opacity="0"></use></g></g></g></g></svg>