<?xml version="1.0" encoding="UTF-8" standalone="no"?>
<!DOCTYPE svg PUBLIC "-//W3C//DTD SVG 1.1//EN" "http://www.w3.org/Graphics/SVG/1.1/DTD/svg11.dtd">
<svg version="1.1" xmlns="http://www.w3.org/2000/svg" xmlns:xlink="http://www.w3.org/1999/xlink" preserveAspectRatio="xMidYMid meet" viewBox="0 0 640 640" width="640" height="640"><defs><path d="M385.47 404.45C395.16 415.16 412.02 415.07 421.6 404.26C428.42 396.54 425.83 399.47 431.38 393.21C443.8 379.17 466.07 380.42 476.84 395.76C487.93 411.54 502.65 432.5 514.38 449.2C524.24 463.24 520.78 482.63 506.67 492.39C493.83 501.28 479.06 511.5 465.75 520.7C451.79 530.36 433.25 530.2 419.46 520.29C383.02 494.11 424.06 523.59 419.46 520.29C299.35 433.98 198.77 323.33 124.28 195.54C121.97 191.57 146.88 234.31 124.28 195.54C117.39 183.72 118.93 168.79 128.09 158.62C138.31 147.27 151.73 132.37 161.48 121.53C171.45 110.45 188.31 109.01 200.03 118.23C216.81 131.45 239.7 149.46 254.82 161.37C270.67 173.85 272.84 197.06 259.58 212.27C255.12 217.39 257.4 214.77 250.76 222.38C243.03 231.24 243.05 244.44 250.8 253.27C264.13 268.46 247.89 249.95 250.54 252.98C250.54 252.98 385.47 404.45 385.47 404.45C389.1 408.46 371.86 389.4 385.47 404.45Z" id="d8PLLdpV95"></path></defs><g><g><g><use xlink:href="#d8PLLdpV95" opacity="1" fill="#008705" fill-opacity="1"></use></g></g></g></svg>